<svg xmlns="http://www.w3.org/2000/svg" width="420.0mm" height="297.0mm" viewBox="0 0 420.0 297.0">
<rect x="0" y="0" width="420.0" height="297.0" fill="#ffffff"/>
<text x="10.00" y="12.50" font-family="Segoe UI,Arial,Helvetica" font-size="4.4" fill="#15181b" text-anchor="start" font-weight="bold">TẦNG 3 — front bedroom (ban công) 13.9 m² split into bedroom + workspace</text>
<text x="10.00" y="18.00" font-family="Segoe UI,Arial,Helvetica" font-size="2.3" fill="#5a6167" text-anchor="start" font-weight="normal">Four options, one desk, same scale.  Orange = new work; the balcony (ban công) and the street are at the BOTTOM, the hall/stair at the top.</text>
<rect x="24.70" y="142.79" width="70.60" height="24.96" fill="#eef4ee" stroke="none" stroke-width="0.12"/>
<rect x="24.70" y="71.47" width="70.60" height="71.32" fill="#faf7f1" stroke="none" stroke-width="0.12"/>
<rect x="24.70" y="42.95" width="70.60" height="28.53" fill="#f4f6f8" stroke="none" stroke-width="0.12"/>
<rect x="28.62" y="44.55" width="29.06" height="25.32" fill="#eef1f3" stroke="#9aa3ab" stroke-width="0.1"/>
<rect x="33.08" y="55.25" width="7.49" height="11.05" fill="#ffffff" stroke="#9aa3ab" stroke-width="0.1"/>
<circle cx="36.82" cy="64.52" r="3.39" fill="#ffffff" stroke="#9aa3ab" stroke-width="0.08"/>
<rect x="38.96" y="56.85" width="14.26" height="8.56" fill="#ffffff" stroke="#9aa3ab" stroke-width="0.1"/>
<rect x="24.70" y="10.85" width="3.57" height="160.47" fill="#20242a" stroke="none" stroke-width="0.12"/>
<rect x="91.74" y="10.85" width="3.57" height="160.47" fill="#20242a" stroke="none" stroke-width="0.12"/>
<rect x="24.70" y="167.75" width="70.60" height="3.57" fill="#20242a" stroke="none" stroke-width="0.12"/>
<rect x="24.70" y="141.90" width="70.60" height="1.78" fill="#3d4247" stroke="none" stroke-width="0.12"/>
<rect x="28.26" y="70.58" width="63.47" height="1.78" fill="#3d4247" stroke="none" stroke-width="0.12"/>
<rect x="58.57" y="42.95" width="1.78" height="28.53" fill="#3d4247" stroke="none" stroke-width="0.12"/>
<rect x="24.70" y="42.05" width="70.60" height="1.78" fill="#3d4247" stroke="none" stroke-width="0.12"/>
<rect x="28.26" y="141.45" width="16.05" height="2.67" fill="#ffffff" stroke="none" stroke-width="0.12"/>
<line x1="44.31" y1="142.79" x2="44.31" y2="126.74" stroke="#15181b" stroke-width="0.18"/>
<path d="M 28.26 142.79 A 16.05 16.05 0 0 1 44.31 126.74" fill="none" stroke="#15181b" stroke-width="0.13" stroke-dasharray="0.9 0.6"/>
<rect x="66.78" y="141.45" width="24.96" height="2.67" fill="#ffffff" stroke="none" stroke-width="0.12"/>
<line x1="66.78" y1="143.86" x2="91.74" y2="143.86" stroke="#2f6fb0" stroke-width="0.1"/>
<line x1="66.78" y1="142.79" x2="91.74" y2="142.79" stroke="#2f6fb0" stroke-width="0.1"/>
<line x1="66.78" y1="141.72" x2="91.74" y2="141.72" stroke="#2f6fb0" stroke-width="0.1"/>
<rect x="34.06" y="70.14" width="16.05" height="2.67" fill="#ffffff" stroke="none" stroke-width="0.12"/>
<line x1="34.06" y1="71.47" x2="34.06" y2="55.43" stroke="#15181b" stroke-width="0.18"/>
<rect x="69.36" y="70.14" width="16.05" height="2.67" fill="#ffffff" stroke="none" stroke-width="0.12"/>
<line x1="85.41" y1="71.47" x2="85.41" y2="55.43" stroke="#15181b" stroke-width="0.18"/>
<line x1="24.70" y1="168.29" x2="95.30" y2="168.29" stroke="#2f7a2f" stroke-width="0.35"/>
<rect x="28.26" y="110.70" width="63.47" height="1.78" fill="#e8590c" stroke="none" stroke-width="0.12"/>
<rect x="28.26" y="112.48" width="63.47" height="30.31" fill="#fdf7ef" stroke="none" stroke-width="0.12"/>
<rect x="30.05" y="110.16" width="21.40" height="2.85" fill="#ffffff" stroke="none" stroke-width="0.12"/>
<line x1="36.04" y1="111.95" x2="41.81" y2="111.95" stroke="#e8590c" stroke-width="0.22"/>
<line x1="39.67" y1="111.23" x2="51.98" y2="111.23" stroke="#e8590c" stroke-width="0.22"/>
<text x="37.18" y="121.40" font-family="Segoe UI,Arial,Helvetica" font-size="1.8" fill="#e8590c" text-anchor="middle" font-weight="normal">CỬA TRƯỢT 1200</text>
<rect x="65.71" y="130.13" width="24.96" height="11.59" fill="#ffe9c9" stroke="#c98f2e" stroke-width="0.14"/>
<circle cx="78.19" cy="124.25" r="4.28" fill="#cdd5dc" stroke="#8a939c" stroke-width="0.1"/>
<text x="38.96" y="120.50" font-family="Segoe UI,Arial,Helvetica" font-size="1.9" fill="#15181b" text-anchor="middle" font-weight="bold">BÀN LÀM VIỆC</text>
<text x="38.96" y="127.64" font-family="Segoe UI,Arial,Helvetica" font-size="1.9" fill="#5a6167" text-anchor="middle" font-weight="bold">5.9 m²</text>
<rect x="42.53" y="73.26" width="28.53" height="35.66" fill="#cfe0f0" stroke="#7d95ab" stroke-width="0.1"/>
<rect x="42.53" y="73.26" width="28.53" height="1.96" fill="#a9c4dc" stroke="#7d95ab" stroke-width="0.1"/>
<rect x="45.74" y="75.22" width="9.45" height="7.67" fill="#ffffff" stroke="#9db3c7" stroke-width="0.1"/>
<rect x="58.40" y="75.22" width="9.45" height="7.67" fill="#ffffff" stroke="#9db3c7" stroke-width="0.1"/>
<rect x="81.04" y="91.09" width="10.70" height="17.83" fill="#e9e3d6" stroke="#a89a80" stroke-width="0.14"/>
<line x1="81.04" y1="100.00" x2="91.74" y2="100.00" stroke="#a89a80" stroke-width="0.08"/>
<text x="38.96" y="80.39" font-family="Segoe UI,Arial,Helvetica" font-size="1.9" fill="#15181b" text-anchor="middle" font-weight="bold">P. NGỦ 7.7 m²</text>
<text x="13.00" y="22.00" font-family="Segoe UI,Arial,Helvetica" font-size="3.2" fill="#e8590c" text-anchor="start" font-weight="bold">OPTION A</text>
<text x="30.00" y="22.00" font-family="Segoe UI,Arial,Helvetica" font-size="2.5" fill="#15181b" text-anchor="start" font-weight="bold">Study at the balcony</text>
<text x="13.00" y="190.00" font-family="Segoe UI,Arial,Helvetica" font-size="2.2" fill="#15181b" text-anchor="start" font-weight="normal">BÀN LÀM VIỆC 5.9 m² · P.NGỦ 7.7 m²</text>
<text x="13.00" y="194.10" font-family="Segoe UI,Arial,Helvetica" font-size="2.2" fill="#5a6167" text-anchor="start" font-weight="normal">Desk gets the window straight on — the</text>
<text x="13.00" y="198.20" font-family="Segoe UI,Arial,Helvetica" font-size="2.2" fill="#5a6167" text-anchor="start" font-weight="normal">only room in the set with direct light.</text>
<text x="13.00" y="202.30" font-family="Segoe UI,Arial,Helvetica" font-size="2.2" fill="#5a6167" text-anchor="start" font-weight="normal">Bedroom keeps its own WC; bedroom is</text>
<text x="13.00" y="206.40" font-family="Segoe UI,Arial,Helvetica" font-size="2.2" fill="#5a6167" text-anchor="start" font-weight="normal">the walk-through to the study.</text>
<text x="13.00" y="210.50" font-family="Segoe UI,Arial,Helvetica" font-size="2.2" fill="#5a6167" text-anchor="start" font-weight="normal"></text>
<text x="13.00" y="214.60" font-family="Segoe UI,Arial,Helvetica" font-size="2.2" fill="#8a4b2a" text-anchor="start" font-weight="normal">− Bedroom 2150 deep, and the WC/hall</text>
<text x="13.00" y="218.70" font-family="Segoe UI,Arial,Helvetica" font-size="2.2" fill="#8a4b2a" text-anchor="start" font-weight="normal">   door swings land close to the bed.</text>
<rect x="10.00" y="10.50" width="98.00" height="182.00" fill="none" stroke="#d3d8dc" stroke-width="0.25"/>
<rect x="126.70" y="142.79" width="70.60" height="24.96" fill="#eef4ee" stroke="none" stroke-width="0.12"/>
<rect x="126.70" y="71.47" width="70.60" height="71.32" fill="#faf7f1" stroke="none" stroke-width="0.12"/>
<rect x="126.70" y="42.95" width="70.60" height="28.53" fill="#f4f6f8" stroke="none" stroke-width="0.12"/>
<rect x="130.62" y="44.55" width="29.06" height="25.32" fill="#eef1f3" stroke="#9aa3ab" stroke-width="0.1"/>
<rect x="135.08" y="55.25" width="7.49" height="11.05" fill="#ffffff" stroke="#9aa3ab" stroke-width="0.1"/>
<circle cx="138.82" cy="64.52" r="3.39" fill="#ffffff" stroke="#9aa3ab" stroke-width="0.08"/>
<rect x="140.96" y="56.85" width="14.26" height="8.56" fill="#ffffff" stroke="#9aa3ab" stroke-width="0.1"/>
<rect x="126.70" y="10.85" width="3.57" height="160.47" fill="#20242a" stroke="none" stroke-width="0.12"/>
<rect x="193.74" y="10.85" width="3.57" height="160.47" fill="#20242a" stroke="none" stroke-width="0.12"/>
<rect x="126.70" y="167.75" width="70.60" height="3.57" fill="#20242a" stroke="none" stroke-width="0.12"/>
<rect x="126.70" y="141.90" width="70.60" height="1.78" fill="#3d4247" stroke="none" stroke-width="0.12"/>
<rect x="130.26" y="70.58" width="63.47" height="1.78" fill="#3d4247" stroke="none" stroke-width="0.12"/>
<rect x="160.57" y="42.95" width="1.78" height="28.53" fill="#3d4247" stroke="none" stroke-width="0.12"/>
<rect x="126.70" y="42.05" width="70.60" height="1.78" fill="#3d4247" stroke="none" stroke-width="0.12"/>
<rect x="130.26" y="141.45" width="16.05" height="2.67" fill="#ffffff" stroke="none" stroke-width="0.12"/>
<line x1="146.31" y1="142.79" x2="146.31" y2="126.74" stroke="#15181b" stroke-width="0.18"/>
<path d="M 130.26 142.79 A 16.05 16.05 0 0 1 146.31 126.74" fill="none" stroke="#15181b" stroke-width="0.13" stroke-dasharray="0.9 0.6"/>
<rect x="168.78" y="141.45" width="24.96" height="2.67" fill="#ffffff" stroke="none" stroke-width="0.12"/>
<line x1="168.78" y1="143.86" x2="193.74" y2="143.86" stroke="#2f6fb0" stroke-width="0.1"/>
<line x1="168.78" y1="142.79" x2="193.74" y2="142.79" stroke="#2f6fb0" stroke-width="0.1"/>
<line x1="168.78" y1="141.72" x2="193.74" y2="141.72" stroke="#2f6fb0" stroke-width="0.1"/>
<rect x="136.06" y="70.14" width="16.05" height="2.67" fill="#ffffff" stroke="none" stroke-width="0.12"/>
<line x1="136.06" y1="71.47" x2="136.06" y2="55.43" stroke="#15181b" stroke-width="0.18"/>
<rect x="171.36" y="70.14" width="16.05" height="2.67" fill="#ffffff" stroke="none" stroke-width="0.12"/>
<line x1="187.41" y1="71.47" x2="187.41" y2="55.43" stroke="#15181b" stroke-width="0.18"/>
<line x1="126.70" y1="168.29" x2="197.30" y2="168.29" stroke="#2f7a2f" stroke-width="0.35"/>
<rect x="165.92" y="71.47" width="1.78" height="71.32" fill="#e8590c" stroke="none" stroke-width="0.12"/>
<rect x="167.71" y="71.47" width="26.03" height="71.32" fill="#fdf7ef" stroke="none" stroke-width="0.12"/>
<rect x="165.39" y="78.60" width="2.85" height="16.05" fill="#ffffff" stroke="none" stroke-width="0.12"/>
<line x1="165.92" y1="78.60" x2="165.92" y2="94.65" stroke="#15181b" stroke-width="0.18"/>
<path d="M 181.97 78.60 A 16.05 16.05 0 0 1 165.92 94.65" fill="none" stroke="#15181b" stroke-width="0.13" stroke-dasharray="0.9 0.6"/>
<rect x="171.27" y="130.13" width="22.47" height="11.59" fill="#ffe9c9" stroke="#c98f2e" stroke-width="0.14"/>
<circle cx="182.50" cy="124.25" r="4.28" fill="#cdd5dc" stroke="#8a939c" stroke-width="0.1"/>
<text x="181.97" y="96.43" font-family="Segoe UI,Arial,Helvetica" font-size="1.9" fill="#15181b" text-anchor="middle" font-weight="bold">BÀN LÀM VIỆC</text>
<text x="181.97" y="102.67" font-family="Segoe UI,Arial,Helvetica" font-size="1.9" fill="#5a6167" text-anchor="middle" font-weight="bold">5.7 m²</text>
<rect x="130.26" y="100.00" width="35.66" height="28.53" fill="#cfe0f0" stroke="#7d95ab" stroke-width="0.1"/>
<rect x="163.96" y="100.00" width="1.96" height="28.53" fill="#a9c4dc" stroke="#7d95ab" stroke-width="0.1"/>
<rect x="156.29" y="115.87" width="7.67" height="9.45" fill="#ffffff" stroke="#9db3c7" stroke-width="0.1"/>
<rect x="156.29" y="103.21" width="7.67" height="9.45" fill="#ffffff" stroke="#9db3c7" stroke-width="0.1"/>
<rect x="148.81" y="131.02" width="17.12" height="10.70" fill="#e9e3d6" stroke="#a89a80" stroke-width="0.14"/>
<line x1="157.36" y1="141.72" x2="157.36" y2="131.02" stroke="#a89a80" stroke-width="0.08"/>
<text x="140.96" y="82.17" font-family="Segoe UI,Arial,Helvetica" font-size="1.9" fill="#15181b" text-anchor="middle" font-weight="bold">P. NGỦ 7.8 m²</text>
<text x="115.00" y="22.00" font-family="Segoe UI,Arial,Helvetica" font-size="3.2" fill="#e8590c" text-anchor="start" font-weight="bold">OPTION B</text>
<text x="132.00" y="22.00" font-family="Segoe UI,Arial,Helvetica" font-size="2.5" fill="#15181b" text-anchor="start" font-weight="bold">Side split — desk by the window</text>
<text x="115.00" y="190.00" font-family="Segoe UI,Arial,Helvetica" font-size="2.2" fill="#15181b" text-anchor="start" font-weight="normal">BÀN LÀM VIỆC 5.7 m² · P.NGỦ 7.8 m²</text>
<text x="115.00" y="194.10" font-family="Segoe UI,Arial,Helvetica" font-size="2.2" fill="#5a6167" text-anchor="start" font-weight="normal">Each zone gets its own door: the east</text>
<text x="115.00" y="198.20" font-family="Segoe UI,Arial,Helvetica" font-size="2.2" fill="#5a6167" text-anchor="start" font-weight="normal">strip takes the window AND the entry,</text>
<text x="115.00" y="202.30" font-family="Segoe UI,Arial,Helvetica" font-size="2.2" fill="#5a6167" text-anchor="start" font-weight="normal">the west strip the balcony door and</text>
<text x="115.00" y="206.40" font-family="Segoe UI,Arial,Helvetica" font-size="2.2" fill="#5a6167" text-anchor="start" font-weight="normal">the WC. No crossing a bedroom.</text>
<text x="115.00" y="210.50" font-family="Segoe UI,Arial,Helvetica" font-size="2.2" fill="#5a6167" text-anchor="start" font-weight="normal"></text>
<text x="115.00" y="214.60" font-family="Segoe UI,Arial,Helvetica" font-size="2.2" fill="#8a4b2a" text-anchor="start" font-weight="normal">− Study only 1460 clear; bedroom 2000</text>
<text x="115.00" y="218.70" font-family="Segoe UI,Arial,Helvetica" font-size="2.2" fill="#8a4b2a" text-anchor="start" font-weight="normal">   wide, so the bed spans it.</text>
<rect x="112.00" y="10.50" width="98.00" height="182.00" fill="none" stroke="#d3d8dc" stroke-width="0.25"/>
<rect x="228.70" y="142.79" width="70.60" height="24.96" fill="#eef4ee" stroke="none" stroke-width="0.12"/>
<rect x="228.70" y="71.47" width="70.60" height="71.32" fill="#faf7f1" stroke="none" stroke-width="0.12"/>
<rect x="228.70" y="42.95" width="70.60" height="28.53" fill="#f4f6f8" stroke="none" stroke-width="0.12"/>
<rect x="232.62" y="44.55" width="29.06" height="25.32" fill="#eef1f3" stroke="#9aa3ab" stroke-width="0.1"/>
<rect x="237.08" y="55.25" width="7.49" height="11.05" fill="#ffffff" stroke="#9aa3ab" stroke-width="0.1"/>
<circle cx="240.82" cy="64.52" r="3.39" fill="#ffffff" stroke="#9aa3ab" stroke-width="0.08"/>
<rect x="242.96" y="56.85" width="14.26" height="8.56" fill="#ffffff" stroke="#9aa3ab" stroke-width="0.1"/>
<rect x="228.70" y="10.85" width="3.57" height="160.47" fill="#20242a" stroke="none" stroke-width="0.12"/>
<rect x="295.74" y="10.85" width="3.57" height="160.47" fill="#20242a" stroke="none" stroke-width="0.12"/>
<rect x="228.70" y="167.75" width="70.60" height="3.57" fill="#20242a" stroke="none" stroke-width="0.12"/>
<rect x="228.70" y="141.90" width="70.60" height="1.78" fill="#3d4247" stroke="none" stroke-width="0.12"/>
<rect x="232.26" y="70.58" width="63.47" height="1.78" fill="#3d4247" stroke="none" stroke-width="0.12"/>
<rect x="262.57" y="42.95" width="1.78" height="28.53" fill="#3d4247" stroke="none" stroke-width="0.12"/>
<rect x="228.70" y="42.05" width="70.60" height="1.78" fill="#3d4247" stroke="none" stroke-width="0.12"/>
<rect x="232.26" y="141.45" width="16.05" height="2.67" fill="#ffffff" stroke="none" stroke-width="0.12"/>
<line x1="248.31" y1="142.79" x2="248.31" y2="126.74" stroke="#15181b" stroke-width="0.18"/>
<path d="M 232.26 142.79 A 16.05 16.05 0 0 1 248.31 126.74" fill="none" stroke="#15181b" stroke-width="0.13" stroke-dasharray="0.9 0.6"/>
<rect x="270.78" y="141.45" width="24.96" height="2.67" fill="#ffffff" stroke="none" stroke-width="0.12"/>
<line x1="270.78" y1="143.86" x2="295.74" y2="143.86" stroke="#2f6fb0" stroke-width="0.1"/>
<line x1="270.78" y1="142.79" x2="295.74" y2="142.79" stroke="#2f6fb0" stroke-width="0.1"/>
<line x1="270.78" y1="141.72" x2="295.74" y2="141.72" stroke="#2f6fb0" stroke-width="0.1"/>
<rect x="238.06" y="70.14" width="16.05" height="2.67" fill="#ffffff" stroke="none" stroke-width="0.12"/>
<line x1="238.06" y1="71.47" x2="238.06" y2="55.43" stroke="#15181b" stroke-width="0.18"/>
<rect x="273.36" y="70.14" width="16.05" height="2.67" fill="#ffffff" stroke="none" stroke-width="0.12"/>
<line x1="289.41" y1="71.47" x2="289.41" y2="55.43" stroke="#15181b" stroke-width="0.18"/>
<line x1="228.70" y1="168.29" x2="299.30" y2="168.29" stroke="#2f7a2f" stroke-width="0.35"/>
<line x1="232.26" y1="101.87" x2="295.74" y2="101.87" stroke="#2f6fb0" stroke-width="0.3"/>
<line x1="232.26" y1="99.91" x2="295.74" y2="99.91" stroke="#2f6fb0" stroke-width="0.3"/>
<line x1="233.33" y1="101.87" x2="233.33" y2="99.91" stroke="#bcd4ea" stroke-width="0.12"/>
<line x1="236.01" y1="101.87" x2="236.01" y2="99.91" stroke="#bcd4ea" stroke-width="0.12"/>
<line x1="238.68" y1="101.87" x2="238.68" y2="99.91" stroke="#bcd4ea" stroke-width="0.12"/>
<line x1="241.36" y1="101.87" x2="241.36" y2="99.91" stroke="#bcd4ea" stroke-width="0.12"/>
<line x1="244.03" y1="101.87" x2="244.03" y2="99.91" stroke="#bcd4ea" stroke-width="0.12"/>
<line x1="246.71" y1="101.87" x2="246.71" y2="99.91" stroke="#bcd4ea" stroke-width="0.12"/>
<line x1="249.38" y1="101.87" x2="249.38" y2="99.91" stroke="#bcd4ea" stroke-width="0.12"/>
<line x1="252.05" y1="101.87" x2="252.05" y2="99.91" stroke="#bcd4ea" stroke-width="0.12"/>
<line x1="254.73" y1="101.87" x2="254.73" y2="99.91" stroke="#bcd4ea" stroke-width="0.12"/>
<line x1="257.40" y1="101.87" x2="257.40" y2="99.91" stroke="#bcd4ea" stroke-width="0.12"/>
<line x1="260.08" y1="101.87" x2="260.08" y2="99.91" stroke="#bcd4ea" stroke-width="0.12"/>
<line x1="262.75" y1="101.87" x2="262.75" y2="99.91" stroke="#bcd4ea" stroke-width="0.12"/>
<line x1="265.43" y1="101.87" x2="265.43" y2="99.91" stroke="#bcd4ea" stroke-width="0.12"/>
<line x1="268.10" y1="101.87" x2="268.10" y2="99.91" stroke="#bcd4ea" stroke-width="0.12"/>
<line x1="270.78" y1="101.87" x2="270.78" y2="99.91" stroke="#bcd4ea" stroke-width="0.12"/>
<line x1="273.45" y1="101.87" x2="273.45" y2="99.91" stroke="#bcd4ea" stroke-width="0.12"/>
<line x1="276.12" y1="101.87" x2="276.12" y2="99.91" stroke="#bcd4ea" stroke-width="0.12"/>
<line x1="278.80" y1="101.87" x2="278.80" y2="99.91" stroke="#bcd4ea" stroke-width="0.12"/>
<line x1="281.47" y1="101.87" x2="281.47" y2="99.91" stroke="#bcd4ea" stroke-width="0.12"/>
<line x1="284.15" y1="101.87" x2="284.15" y2="99.91" stroke="#bcd4ea" stroke-width="0.12"/>
<line x1="286.82" y1="101.87" x2="286.82" y2="99.91" stroke="#bcd4ea" stroke-width="0.12"/>
<line x1="289.50" y1="101.87" x2="289.50" y2="99.91" stroke="#bcd4ea" stroke-width="0.12"/>
<line x1="292.17" y1="101.87" x2="292.17" y2="99.91" stroke="#bcd4ea" stroke-width="0.12"/>
<line x1="294.84" y1="101.87" x2="294.84" y2="99.91" stroke="#bcd4ea" stroke-width="0.12"/>
<text x="248.31" y="116.94" font-family="Segoe UI,Arial,Helvetica" font-size="1.8" fill="#2f6fb0" text-anchor="middle" font-weight="normal">VÁCH KÍNH</text>
<rect x="228.70" y="71.47" width="70.60" height="29.42" fill="#eef5fb" stroke="none" stroke-width="0.12"/>
<rect x="255.44" y="100.18" width="16.05" height="1.43" fill="#ffffff" stroke="none" stroke-width="0.12"/>
<line x1="255.44" y1="99.91" x2="256.84" y2="115.90" stroke="#15181b" stroke-width="0.18"/>
<path d="M 271.49 99.91 A 16.05 16.05 0 0 1 256.84 115.90" fill="none" stroke="#15181b" stroke-width="0.13" stroke-dasharray="0.9 0.6"/>
<rect x="269.71" y="85.74" width="24.96" height="11.59" fill="#ffe9c9" stroke="#c98f2e" stroke-width="0.14"/>
<circle cx="282.19" cy="79.85" r="4.28" fill="#cdd5dc" stroke="#8a939c" stroke-width="0.1"/>
<text x="244.74" y="83.95" font-family="Segoe UI,Arial,Helvetica" font-size="1.9" fill="#15181b" text-anchor="middle" font-weight="bold">BÀN LÀM VIỆC</text>
<text x="244.74" y="90.19" font-family="Segoe UI,Arial,Helvetica" font-size="1.7" fill="#5a6167" text-anchor="middle" font-weight="bold">5.5 m² · sáng qua kính</text>
<rect x="250.98" y="100.89" width="28.53" height="35.66" fill="#cfe0f0" stroke="#7d95ab" stroke-width="0.1"/>
<rect x="250.98" y="100.89" width="28.53" height="1.96" fill="#a9c4dc" stroke="#7d95ab" stroke-width="0.1"/>
<rect x="254.19" y="102.85" width="9.45" height="7.67" fill="#ffffff" stroke="#9db3c7" stroke-width="0.1"/>
<rect x="266.85" y="102.85" width="9.45" height="7.67" fill="#ffffff" stroke="#9db3c7" stroke-width="0.1"/>
<rect x="285.04" y="102.67" width="10.70" height="29.42" fill="#e9e3d6" stroke="#a89a80" stroke-width="0.14"/>
<line x1="285.04" y1="117.38" x2="295.74" y2="117.38" stroke="#a89a80" stroke-width="0.08"/>
<text x="248.31" y="117.83" font-family="Segoe UI,Arial,Helvetica" font-size="1.9" fill="#15181b" text-anchor="middle" font-weight="bold">P. NGỦ 8.0 m²</text>
<text x="217.00" y="22.00" font-family="Segoe UI,Arial,Helvetica" font-size="3.2" fill="#e8590c" text-anchor="start" font-weight="bold">OPTION C</text>
<text x="234.00" y="22.00" font-family="Segoe UI,Arial,Helvetica" font-size="2.5" fill="#15181b" text-anchor="start" font-weight="bold">Glazed study at the rear</text>
<text x="217.00" y="190.00" font-family="Segoe UI,Arial,Helvetica" font-size="2.2" fill="#15181b" text-anchor="start" font-weight="normal">BÀN LÀM VIỆC 5.5 m² · P.NGỦ 8.0 m²</text>
<text x="217.00" y="194.10" font-family="Segoe UI,Arial,Helvetica" font-size="2.2" fill="#5a6167" text-anchor="start" font-weight="normal">Bedroom keeps balcony, window and WC</text>
<text x="217.00" y="198.20" font-family="Segoe UI,Arial,Helvetica" font-size="2.2" fill="#5a6167" text-anchor="start" font-weight="normal">at full size; the study is a 1500-deep</text>
<text x="217.00" y="202.30" font-family="Segoe UI,Arial,Helvetica" font-size="2.2" fill="#5a6167" text-anchor="start" font-weight="normal">glazed box at the core, taking the</text>
<text x="217.00" y="206.40" font-family="Segoe UI,Arial,Helvetica" font-size="2.2" fill="#5a6167" text-anchor="start" font-weight="normal">entry and the WC.</text>
<text x="217.00" y="210.50" font-family="Segoe UI,Arial,Helvetica" font-size="2.2" fill="#5a6167" text-anchor="start" font-weight="normal"></text>
<text x="217.00" y="214.60" font-family="Segoe UI,Arial,Helvetica" font-size="2.2" fill="#8a4b2a" text-anchor="start" font-weight="normal">− Desk has no window: light is borrowed</text>
<text x="217.00" y="218.70" font-family="Segoe UI,Arial,Helvetica" font-size="2.2" fill="#8a4b2a" text-anchor="start" font-weight="normal">   through the glass; calls are exposed.</text>
<rect x="214.00" y="10.50" width="98.00" height="182.00" fill="none" stroke="#d3d8dc" stroke-width="0.25"/>
<rect x="330.70" y="142.79" width="70.60" height="24.96" fill="#eef4ee" stroke="none" stroke-width="0.12"/>
<rect x="330.70" y="71.47" width="70.60" height="71.32" fill="#faf7f1" stroke="none" stroke-width="0.12"/>
<rect x="330.70" y="42.95" width="70.60" height="28.53" fill="#f4f6f8" stroke="none" stroke-width="0.12"/>
<rect x="334.62" y="44.55" width="29.06" height="25.32" fill="#eef1f3" stroke="#9aa3ab" stroke-width="0.1"/>
<rect x="339.08" y="55.25" width="7.49" height="11.05" fill="#ffffff" stroke="#9aa3ab" stroke-width="0.1"/>
<circle cx="342.82" cy="64.52" r="3.39" fill="#ffffff" stroke="#9aa3ab" stroke-width="0.08"/>
<rect x="344.96" y="56.85" width="14.26" height="8.56" fill="#ffffff" stroke="#9aa3ab" stroke-width="0.1"/>
<rect x="330.70" y="10.85" width="3.57" height="160.47" fill="#20242a" stroke="none" stroke-width="0.12"/>
<rect x="397.74" y="10.85" width="3.57" height="160.47" fill="#20242a" stroke="none" stroke-width="0.12"/>
<rect x="330.70" y="167.75" width="70.60" height="3.57" fill="#20242a" stroke="none" stroke-width="0.12"/>
<rect x="330.70" y="141.90" width="70.60" height="1.78" fill="#3d4247" stroke="none" stroke-width="0.12"/>
<rect x="334.26" y="70.58" width="63.47" height="1.78" fill="#3d4247" stroke="none" stroke-width="0.12"/>
<rect x="364.57" y="42.95" width="1.78" height="28.53" fill="#3d4247" stroke="none" stroke-width="0.12"/>
<rect x="330.70" y="42.05" width="70.60" height="1.78" fill="#3d4247" stroke="none" stroke-width="0.12"/>
<rect x="334.26" y="141.45" width="16.05" height="2.67" fill="#ffffff" stroke="none" stroke-width="0.12"/>
<line x1="350.31" y1="142.79" x2="350.31" y2="126.74" stroke="#15181b" stroke-width="0.18"/>
<path d="M 334.26 142.79 A 16.05 16.05 0 0 1 350.31 126.74" fill="none" stroke="#15181b" stroke-width="0.13" stroke-dasharray="0.9 0.6"/>
<rect x="372.78" y="141.45" width="24.96" height="2.67" fill="#ffffff" stroke="none" stroke-width="0.12"/>
<line x1="372.78" y1="143.86" x2="397.74" y2="143.86" stroke="#2f6fb0" stroke-width="0.1"/>
<line x1="372.78" y1="142.79" x2="397.74" y2="142.79" stroke="#2f6fb0" stroke-width="0.1"/>
<line x1="372.78" y1="141.72" x2="397.74" y2="141.72" stroke="#2f6fb0" stroke-width="0.1"/>
<rect x="340.06" y="70.14" width="16.05" height="2.67" fill="#ffffff" stroke="none" stroke-width="0.12"/>
<line x1="340.06" y1="71.47" x2="340.06" y2="55.43" stroke="#15181b" stroke-width="0.18"/>
<rect x="375.36" y="70.14" width="16.05" height="2.67" fill="#ffffff" stroke="none" stroke-width="0.12"/>
<line x1="391.41" y1="71.47" x2="391.41" y2="55.43" stroke="#15181b" stroke-width="0.18"/>
<line x1="330.70" y1="168.29" x2="401.30" y2="168.29" stroke="#2f7a2f" stroke-width="0.35"/>
<rect x="371.71" y="130.13" width="24.96" height="11.59" fill="#ffe9c9" stroke="#c98f2e" stroke-width="0.14"/>
<circle cx="384.19" cy="124.25" r="4.28" fill="#cdd5dc" stroke="#8a939c" stroke-width="0.1"/>
<text x="351.20" y="116.05" font-family="Segoe UI,Arial,Helvetica" font-size="1.9" fill="#15181b" text-anchor="middle" font-weight="bold">BÀN LÀM VIỆC</text>
<rect x="352.98" y="72.36" width="28.53" height="35.66" fill="#cfe0f0" stroke="#7d95ab" stroke-width="0.1"/>
<rect x="352.98" y="72.36" width="28.53" height="1.96" fill="#a9c4dc" stroke="#7d95ab" stroke-width="0.1"/>
<rect x="356.19" y="74.33" width="9.45" height="7.67" fill="#ffffff" stroke="#9db3c7" stroke-width="0.1"/>
<rect x="368.85" y="74.33" width="9.45" height="7.67" fill="#ffffff" stroke="#9db3c7" stroke-width="0.1"/>
<rect x="352.09" y="131.02" width="19.61" height="10.70" fill="#e9e3d6" stroke="#a89a80" stroke-width="0.14"/>
<line x1="361.90" y1="141.72" x2="361.90" y2="131.02" stroke="#a89a80" stroke-width="0.08"/>
<line x1="334.26" y1="110.70" x2="397.74" y2="110.70" stroke="#7a4bd0" stroke-width="0.3" stroke-dasharray="3 1.5"/>
<text x="361.90" y="116.94" font-family="Segoe UI,Arial,Helvetica" font-size="1.7" fill="#7a4bd0" text-anchor="middle" font-weight="normal">RÈM / VÁCH DI ĐỘNG</text>
<text x="344.07" y="80.39" font-family="Segoe UI,Arial,Helvetica" font-size="1.9" fill="#15181b" text-anchor="middle" font-weight="bold">P. NGỦ 13.9 m²</text>
<text x="319.00" y="22.00" font-family="Segoe UI,Arial,Helvetica" font-size="3.2" fill="#e8590c" text-anchor="start" font-weight="bold">OPTION D</text>
<text x="336.00" y="22.00" font-family="Segoe UI,Arial,Helvetica" font-size="2.5" fill="#15181b" text-anchor="start" font-weight="bold">Open studio + curtain</text>
<text x="319.00" y="190.00" font-family="Segoe UI,Arial,Helvetica" font-size="2.2" fill="#15181b" text-anchor="start" font-weight="normal">13.9 m² kept whole — no wall</text>
<text x="319.00" y="194.10" font-family="Segoe UI,Arial,Helvetica" font-size="2.2" fill="#5a6167" text-anchor="start" font-weight="normal">Desk at the window, bed at the core,</text>
<text x="319.00" y="198.20" font-family="Segoe UI,Arial,Helvetica" font-size="2.2" fill="#5a6167" text-anchor="start" font-weight="normal">one track curtain between them.</text>
<text x="319.00" y="202.30" font-family="Segoe UI,Arial,Helvetica" font-size="2.2" fill="#5a6167" text-anchor="start" font-weight="normal">Cheapest build, most light, nothing</text>
<text x="319.00" y="206.40" font-family="Segoe UI,Arial,Helvetica" font-size="2.2" fill="#5a6167" text-anchor="start" font-weight="normal">lost if the plan changes.</text>
<text x="319.00" y="210.50" font-family="Segoe UI,Arial,Helvetica" font-size="2.2" fill="#5a6167" text-anchor="start" font-weight="normal"></text>
<text x="319.00" y="214.60" font-family="Segoe UI,Arial,Helvetica" font-size="2.2" fill="#8a4b2a" text-anchor="start" font-weight="normal">− No acoustic separation: the desk is</text>
<text x="319.00" y="218.70" font-family="Segoe UI,Arial,Helvetica" font-size="2.2" fill="#8a4b2a" text-anchor="start" font-weight="normal">   visible from the bed day and night.</text>
<rect x="316.00" y="10.50" width="98.00" height="182.00" fill="none" stroke="#d3d8dc" stroke-width="0.25"/>
<rect x="10.00" y="264.00" width="400.00" height="26.00" fill="#fbfcfd" stroke="#e2e6ea" stroke-width="0.25"/>
<rect x="16.00" y="269.00" width="5.00" height="5.00" fill="#20242a" stroke="none" stroke-width="0.12"/>
<text x="23.00" y="273.00" font-family="Segoe UI,Arial,Helvetica" font-size="2.1" fill="#5a6167" text-anchor="start" font-weight="normal">tường / wall</text>
<rect x="56.00" y="269.00" width="5.00" height="5.00" fill="#e8590c" stroke="none" stroke-width="0.12"/>
<text x="63.00" y="273.00" font-family="Segoe UI,Arial,Helvetica" font-size="2.1" fill="#5a6167" text-anchor="start" font-weight="normal">vách mới / new partition</text>
<line x1="146.00" y1="271.50" x2="156.00" y2="271.50" stroke="#2f6fb0" stroke-width="0.3"/>
<text x="159.00" y="273.00" font-family="Segoe UI,Arial,Helvetica" font-size="2.1" fill="#5a6167" text-anchor="start" font-weight="normal">kính / glazing</text>
<line x1="192.00" y1="271.50" x2="202.00" y2="271.50" stroke="#7a4bd0" stroke-width="0.3" stroke-dasharray="3 1.5"/>
<text x="205.00" y="273.00" font-family="Segoe UI,Arial,Helvetica" font-size="2.1" fill="#5a6167" text-anchor="start" font-weight="normal">rèm / curtain</text>
<rect x="246.00" y="269.00" width="5.00" height="5.00" fill="#cfe0f0" stroke="#7d95ab" stroke-width="0.1"/>
<text x="253.00" y="273.00" font-family="Segoe UI,Arial,Helvetica" font-size="2.1" fill="#5a6167" text-anchor="start" font-weight="normal">giường 1600 × 2000</text>
<rect x="316.00" y="269.00" width="5.00" height="5.00" fill="#ffe9c9" stroke="#c98f2e" stroke-width="0.14"/>
<text x="323.00" y="273.00" font-family="Segoe UI,Arial,Helvetica" font-size="2.1" fill="#5a6167" text-anchor="start" font-weight="normal">bàn 650 sâu</text>
<rect x="371.00" y="269.00" width="5.00" height="5.00" fill="#e9e3d6" stroke="#a89a80" stroke-width="0.14"/>
<text x="378.00" y="273.00" font-family="Segoe UI,Arial,Helvetica" font-size="2.1" fill="#5a6167" text-anchor="start" font-weight="normal">tủ 600</text>
<text x="10.00" y="293.00" font-family="Segoe UI,Arial,Helvetica" font-size="2.1" fill="#7a8288" text-anchor="start" font-weight="normal">Scale ≈ 1:56.  Party walls 200, partitions 100; new partition shown 100 stud or glass.  Furniture indicative; WC and hall door positions can shift ±300 inside their wall.</text>
</svg>
