<svg xmlns="http://www.w3.org/2000/svg" width="420.0mm" height="297.0mm" viewBox="0 0 420.0 297.0">
<rect x="0" y="0" width="420.0" height="297.0" fill="#ffffff"/>
<text x="10.00" y="12.50" font-family="Segoe UI,Arial,Helvetica" font-size="4.4" fill="#15181b" text-anchor="start" font-weight="bold">TẦNG 3 — rear bedroom 14.2 m² split into bedroom + workspace</text>
<text x="10.00" y="18.00" font-family="Segoe UI,Arial,Helvetica" font-size="2.3" fill="#5a6167" text-anchor="start" font-weight="normal">Four options, same scale.  Orange = new work.  Rear (LÔ GIA + WC) at top; the room's only opening to daylight is the lô gia door, rear-east.</text>
<rect x="25.79" y="146.34" width="66.73" height="26.96" fill="#fbfbfc" stroke="none" stroke-width="0.12"/>
<rect x="25.79" y="50.29" width="66.73" height="96.04" fill="#faf7f1" stroke="none" stroke-width="0.12"/>
<rect x="64.55" y="50.29" width="24.60" height="26.96" fill="#eaf3ea" stroke="#9ab89a" stroke-width="0.1"/>
<rect x="30.18" y="51.81" width="32.69" height="23.93" fill="#eef1f3" stroke="#9aa3ab" stroke-width="0.1"/>
<rect x="34.39" y="61.92" width="7.08" height="10.45" fill="#ffffff" stroke="#9aa3ab" stroke-width="0.1"/>
<circle cx="37.93" cy="70.68" r="3.20" fill="#ffffff" stroke="#9aa3ab" stroke-width="0.08"/>
<rect x="45.17" y="63.44" width="13.48" height="8.09" fill="#ffffff" stroke="#9aa3ab" stroke-width="0.1"/>
<rect x="25.79" y="50.29" width="3.37" height="198.83" fill="#20242a" stroke="none" stroke-width="0.12"/>
<rect x="89.15" y="50.29" width="3.37" height="198.83" fill="#20242a" stroke="none" stroke-width="0.12"/>
<rect x="25.79" y="46.92" width="66.73" height="3.37" fill="#20242a" stroke="none" stroke-width="0.12"/>
<rect x="25.79" y="145.49" width="66.73" height="1.68" fill="#3d4247" stroke="none" stroke-width="0.12"/>
<rect x="29.16" y="51.14" width="59.99" height="1.68" fill="#3d4247" stroke="none" stroke-width="0.12"/>
<rect x="62.86" y="50.29" width="1.68" height="26.96" fill="#3d4247" stroke="none" stroke-width="0.12"/>
<rect x="30.85" y="145.16" width="15.16" height="2.36" fill="#ffffff" stroke="none" stroke-width="0.12"/>
<line x1="30.85" y1="146.34" x2="30.85" y2="131.17" stroke="#15181b" stroke-width="0.18"/>
<path d="M 46.01 146.34 A 15.16 15.16 0 0 1 30.85 131.17" fill="none" stroke="#15181b" stroke-width="0.13" stroke-dasharray="0.9 0.6"/>
<rect x="39.27" y="50.80" width="15.16" height="2.36" fill="#ffffff" stroke="none" stroke-width="0.12"/>
<line x1="39.27" y1="52.82" x2="39.27" y2="37.66" stroke="#15181b" stroke-width="0.18"/>
<path d="M 54.44 52.82 A 15.16 15.16 0 0 1 39.27 37.66" fill="none" stroke="#15181b" stroke-width="0.13" stroke-dasharray="0.9 0.6"/>
<rect x="67.92" y="50.80" width="15.16" height="2.36" fill="#ffffff" stroke="none" stroke-width="0.12"/>
<line x1="83.08" y1="52.82" x2="83.08" y2="37.66" stroke="#15181b" stroke-width="0.18"/>
<path d="M 67.92 52.82 A 15.16 15.16 0 0 0 83.08 37.66" fill="none" stroke="#15181b" stroke-width="0.13" stroke-dasharray="0.9 0.6"/>
<line x1="64.55" y1="51.47" x2="89.15" y2="51.47" stroke="#2f7a2f" stroke-width="0.3"/>
<rect x="29.16" y="106.74" width="59.99" height="1.68" fill="#e8590c" stroke="none" stroke-width="0.12"/>
<rect x="29.16" y="52.82" width="59.99" height="53.92" fill="#fdf7ef" stroke="none" stroke-width="0.12"/>
<line x1="28.66" y1="107.95" x2="62.16" y2="107.95" stroke="#e8590c" stroke-width="0.22"/>
<line x1="56.16" y1="107.21" x2="89.66" y2="107.21" stroke="#e8590c" stroke-width="0.22"/>
<rect x="30.01" y="106.23" width="25.27" height="2.70" fill="#ffffff" stroke="none" stroke-width="0.12"/>
<line x1="29.50" y1="107.95" x2="43.91" y2="107.95" stroke="#e8590c" stroke-width="0.22"/>
<line x1="41.38" y1="107.21" x2="55.79" y2="107.21" stroke="#e8590c" stroke-width="0.22"/>
<text x="46.86" y="96.63" font-family="Segoe UI,Arial,Helvetica" font-size="1.9" fill="#e8590c" text-anchor="middle" font-weight="normal">CỬA TRƯỢT 1500</text>
<rect x="62.86" y="52.82" width="24.60" height="10.95" fill="#ffe9c9" stroke="#c98f2e" stroke-width="0.14"/>
<circle cx="71.06" cy="69.33" r="4.04" fill="#cdd5dc" stroke="#8a939c" stroke-width="0.1"/>
<circle cx="79.26" cy="69.33" r="4.04" fill="#cdd5dc" stroke="#8a939c" stroke-width="0.1"/>
<rect x="30.18" y="81.47" width="6.74" height="21.06" fill="#e9e3d6" stroke="#a89a80" stroke-width="0.14"/>
<line x1="30.18" y1="92.00" x2="36.92" y2="92.00" stroke="#a89a80" stroke-width="0.08"/>
<text x="49.38" y="85.68" font-family="Segoe UI,Arial,Helvetica" font-size="1.9" fill="#15181b" text-anchor="middle" font-weight="bold">BÀN LÀM VIỆC 5.9 m²</text>
<rect x="55.45" y="107.58" width="33.70" height="26.96" fill="#cfe0f0" stroke="#7d95ab" stroke-width="0.1"/>
<rect x="87.30" y="107.58" width="1.85" height="26.96" fill="#a9c4dc" stroke="#7d95ab" stroke-width="0.1"/>
<rect x="80.05" y="122.58" width="7.25" height="8.93" fill="#ffffff" stroke="#9db3c7" stroke-width="0.1"/>
<rect x="80.05" y="110.62" width="7.25" height="8.93" fill="#ffffff" stroke="#9db3c7" stroke-width="0.1"/>
<rect x="47.70" y="135.38" width="41.45" height="10.11" fill="#e9e3d6" stroke="#a89a80" stroke-width="0.14"/>
<line x1="58.06" y1="145.49" x2="58.06" y2="135.38" stroke="#a89a80" stroke-width="0.08"/>
<line x1="68.42" y1="145.49" x2="68.42" y2="135.38" stroke="#a89a80" stroke-width="0.08"/>
<line x1="78.79" y1="145.49" x2="78.79" y2="135.38" stroke="#a89a80" stroke-width="0.08"/>
<text x="38.60" y="122.75" font-family="Segoe UI,Arial,Helvetica" font-size="1.9" fill="#15181b" text-anchor="middle" font-weight="bold">P. NGỦ 7.8 m²</text>
<text x="13.00" y="22.00" font-family="Segoe UI,Arial,Helvetica" font-size="3.2" fill="#e8590c" text-anchor="start" font-weight="bold">OPTION A</text>
<text x="30.00" y="22.00" font-family="Segoe UI,Arial,Helvetica" font-size="2.6" fill="#15181b" text-anchor="start" font-weight="bold">Study at the rear, on the lô gia</text>
<text x="13.00" y="190.00" font-family="Segoe UI,Arial,Helvetica" font-size="2.2" fill="#15181b" text-anchor="start" font-weight="normal">BÀN LÀM VIỆC 5.9 m² · P.NGỦ 7.8 m²</text>
<text x="13.00" y="194.10" font-family="Segoe UI,Arial,Helvetica" font-size="2.2" fill="#5a6167" text-anchor="start" font-weight="normal">Desk sits on the only daylight the</text>
<text x="13.00" y="198.20" font-family="Segoe UI,Arial,Helvetica" font-size="2.2" fill="#5a6167" text-anchor="start" font-weight="normal">room has; the WC stays with the</text>
<text x="13.00" y="202.30" font-family="Segoe UI,Arial,Helvetica" font-size="2.2" fill="#5a6167" text-anchor="start" font-weight="normal">study, so it is out of the bed zone.</text>
<text x="13.00" y="206.40" font-family="Segoe UI,Arial,Helvetica" font-size="2.2" fill="#5a6167" text-anchor="start" font-weight="normal">Partition can slide between</text>
<text x="13.00" y="210.50" font-family="Segoe UI,Arial,Helvetica" font-size="2.2" fill="#5a6167" text-anchor="start" font-weight="normal">1500 and 1900 from the rear wall.</text>
<text x="13.00" y="214.60" font-family="Segoe UI,Arial,Helvetica" font-size="2.2" fill="#8a4b2a" text-anchor="start" font-weight="normal">− Bedroom drops to 2200 deep and</text>
<text x="13.00" y="218.70" font-family="Segoe UI,Arial,Helvetica" font-size="2.2" fill="#8a4b2a" text-anchor="start" font-weight="normal">   you cross the study to reach the WC.</text>
<rect x="10.00" y="10.50" width="98.00" height="182.00" fill="none" stroke="#d3d8dc" stroke-width="0.25"/>
<rect x="127.79" y="146.34" width="66.73" height="26.96" fill="#fbfbfc" stroke="none" stroke-width="0.12"/>
<rect x="127.79" y="50.29" width="66.73" height="96.04" fill="#faf7f1" stroke="none" stroke-width="0.12"/>
<rect x="166.55" y="50.29" width="24.60" height="26.96" fill="#eaf3ea" stroke="#9ab89a" stroke-width="0.1"/>
<rect x="132.18" y="51.81" width="32.69" height="23.93" fill="#eef1f3" stroke="#9aa3ab" stroke-width="0.1"/>
<rect x="136.39" y="61.92" width="7.08" height="10.45" fill="#ffffff" stroke="#9aa3ab" stroke-width="0.1"/>
<circle cx="139.93" cy="70.68" r="3.20" fill="#ffffff" stroke="#9aa3ab" stroke-width="0.08"/>
<rect x="147.17" y="63.44" width="13.48" height="8.09" fill="#ffffff" stroke="#9aa3ab" stroke-width="0.1"/>
<rect x="127.79" y="50.29" width="3.37" height="198.83" fill="#20242a" stroke="none" stroke-width="0.12"/>
<rect x="191.15" y="50.29" width="3.37" height="198.83" fill="#20242a" stroke="none" stroke-width="0.12"/>
<rect x="127.79" y="46.92" width="66.73" height="3.37" fill="#20242a" stroke="none" stroke-width="0.12"/>
<rect x="127.79" y="145.49" width="66.73" height="1.68" fill="#3d4247" stroke="none" stroke-width="0.12"/>
<rect x="131.16" y="51.14" width="59.99" height="1.68" fill="#3d4247" stroke="none" stroke-width="0.12"/>
<rect x="164.86" y="50.29" width="1.68" height="26.96" fill="#3d4247" stroke="none" stroke-width="0.12"/>
<rect x="132.85" y="145.16" width="15.16" height="2.36" fill="#ffffff" stroke="none" stroke-width="0.12"/>
<line x1="132.85" y1="146.34" x2="132.85" y2="131.17" stroke="#15181b" stroke-width="0.18"/>
<path d="M 148.01 146.34 A 15.16 15.16 0 0 1 132.85 131.17" fill="none" stroke="#15181b" stroke-width="0.13" stroke-dasharray="0.9 0.6"/>
<rect x="141.27" y="50.80" width="15.16" height="2.36" fill="#ffffff" stroke="none" stroke-width="0.12"/>
<line x1="141.27" y1="52.82" x2="141.27" y2="37.66" stroke="#15181b" stroke-width="0.18"/>
<path d="M 156.44 52.82 A 15.16 15.16 0 0 1 141.27 37.66" fill="none" stroke="#15181b" stroke-width="0.13" stroke-dasharray="0.9 0.6"/>
<rect x="169.92" y="50.80" width="15.16" height="2.36" fill="#ffffff" stroke="none" stroke-width="0.12"/>
<line x1="185.08" y1="52.82" x2="185.08" y2="37.66" stroke="#15181b" stroke-width="0.18"/>
<path d="M 169.92 52.82 A 15.16 15.16 0 0 0 185.08 37.66" fill="none" stroke="#15181b" stroke-width="0.13" stroke-dasharray="0.9 0.6"/>
<line x1="166.55" y1="51.47" x2="191.15" y2="51.47" stroke="#2f7a2f" stroke-width="0.3"/>
<rect x="131.16" y="120.22" width="59.99" height="1.68" fill="#e8590c" stroke="none" stroke-width="0.12"/>
<rect x="131.16" y="121.90" width="59.99" height="24.43" fill="#fdf7ef" stroke="none" stroke-width="0.12"/>
<line x1="131.16" y1="121.06" x2="164.86" y2="121.06" stroke="#2f6fb0" stroke-width="0.25" stroke-dasharray="2.4 1.2"/>
<text x="150.54" y="128.64" font-family="Segoe UI,Arial,Helvetica" font-size="1.8" fill="#2f6fb0" text-anchor="middle" font-weight="normal">KÍNH LẤY SÁNG 2200</text>
<rect x="132.01" y="119.71" width="20.22" height="2.70" fill="#ffffff" stroke="none" stroke-width="0.12"/>
<line x1="131.50" y1="121.43" x2="143.13" y2="121.43" stroke="#e8590c" stroke-width="0.22"/>
<line x1="141.11" y1="120.69" x2="152.73" y2="120.69" stroke="#e8590c" stroke-width="0.22"/>
<rect x="149.70" y="132.86" width="41.45" height="10.95" fill="#ffe9c9" stroke="#c98f2e" stroke-width="0.14"/>
<circle cx="163.52" cy="127.30" r="4.04" fill="#cdd5dc" stroke="#8a939c" stroke-width="0.1"/>
<circle cx="177.33" cy="127.30" r="4.04" fill="#cdd5dc" stroke="#8a939c" stroke-width="0.1"/>
<rect x="132.18" y="123.08" width="6.74" height="8.09" fill="#e9e3d6" stroke="#a89a80" stroke-width="0.14"/>
<text x="139.59" y="135.38" font-family="Segoe UI,Arial,Helvetica" font-size="1.9" fill="#15181b" text-anchor="middle" font-weight="bold">BÀN LÀM VIỆC</text>
<text x="139.59" y="140.44" font-family="Segoe UI,Arial,Helvetica" font-size="1.9" fill="#5a6167" text-anchor="middle" font-weight="bold">5.0 m²</text>
<rect x="131.16" y="91.58" width="33.70" height="26.96" fill="#cfe0f0" stroke="#7d95ab" stroke-width="0.1"/>
<rect x="131.16" y="91.58" width="1.85" height="26.96" fill="#a9c4dc" stroke="#7d95ab" stroke-width="0.1"/>
<rect x="134.03" y="106.57" width="7.25" height="8.93" fill="#ffffff" stroke="#9db3c7" stroke-width="0.1"/>
<rect x="134.03" y="94.61" width="7.25" height="8.93" fill="#ffffff" stroke="#9db3c7" stroke-width="0.1"/>
<rect x="171.60" y="108.42" width="19.55" height="10.11" fill="#e9e3d6" stroke="#a89a80" stroke-width="0.14"/>
<line x1="181.38" y1="118.53" x2="181.38" y2="108.42" stroke="#a89a80" stroke-width="0.08"/>
<text x="178.34" y="83.99" font-family="Segoe UI,Arial,Helvetica" font-size="1.9" fill="#15181b" text-anchor="middle" font-weight="bold">P. NGỦ 8.9 m²</text>
<text x="115.00" y="22.00" font-family="Segoe UI,Arial,Helvetica" font-size="3.2" fill="#e8590c" text-anchor="start" font-weight="bold">OPTION B</text>
<text x="132.00" y="22.00" font-family="Segoe UI,Arial,Helvetica" font-size="2.6" fill="#15181b" text-anchor="start" font-weight="bold">Study at the entry, bed at the rear</text>
<text x="115.00" y="190.00" font-family="Segoe UI,Arial,Helvetica" font-size="2.2" fill="#15181b" text-anchor="start" font-weight="normal">BÀN LÀM VIỆC 5.0 m² · P.NGỦ 8.9 m²</text>
<text x="115.00" y="194.10" font-family="Segoe UI,Arial,Helvetica" font-size="2.2" fill="#5a6167" text-anchor="start" font-weight="normal">Work zone at the door — no crossing</text>
<text x="115.00" y="198.20" font-family="Segoe UI,Arial,Helvetica" font-size="2.2" fill="#5a6167" text-anchor="start" font-weight="normal">the bedroom for a guest or delivery.</text>
<text x="115.00" y="202.30" font-family="Segoe UI,Arial,Helvetica" font-size="2.2" fill="#5a6167" text-anchor="start" font-weight="normal">Bedroom keeps both the lô gia and</text>
<text x="115.00" y="206.40" font-family="Segoe UI,Arial,Helvetica" font-size="2.2" fill="#5a6167" text-anchor="start" font-weight="normal">the WC, at its best size.</text>
<text x="115.00" y="210.50" font-family="Segoe UI,Arial,Helvetica" font-size="2.2" fill="#5a6167" text-anchor="start" font-weight="normal"></text>
<text x="115.00" y="214.60" font-family="Segoe UI,Arial,Helvetica" font-size="2.2" fill="#8a4b2a" text-anchor="start" font-weight="normal">− No daylight in the study: needs the</text>
<text x="115.00" y="218.70" font-family="Segoe UI,Arial,Helvetica" font-size="2.2" fill="#8a4b2a" text-anchor="start" font-weight="normal">   glazed upper band, or a screen wall.</text>
<rect x="112.00" y="10.50" width="98.00" height="182.00" fill="none" stroke="#d3d8dc" stroke-width="0.25"/>
<rect x="229.79" y="146.34" width="66.73" height="26.96" fill="#fbfbfc" stroke="none" stroke-width="0.12"/>
<rect x="229.79" y="50.29" width="66.73" height="96.04" fill="#faf7f1" stroke="none" stroke-width="0.12"/>
<rect x="268.55" y="50.29" width="24.60" height="26.96" fill="#eaf3ea" stroke="#9ab89a" stroke-width="0.1"/>
<rect x="234.18" y="51.81" width="32.69" height="23.93" fill="#eef1f3" stroke="#9aa3ab" stroke-width="0.1"/>
<rect x="238.39" y="61.92" width="7.08" height="10.45" fill="#ffffff" stroke="#9aa3ab" stroke-width="0.1"/>
<circle cx="241.93" cy="70.68" r="3.20" fill="#ffffff" stroke="#9aa3ab" stroke-width="0.08"/>
<rect x="249.17" y="63.44" width="13.48" height="8.09" fill="#ffffff" stroke="#9aa3ab" stroke-width="0.1"/>
<rect x="229.79" y="50.29" width="3.37" height="198.83" fill="#20242a" stroke="none" stroke-width="0.12"/>
<rect x="293.15" y="50.29" width="3.37" height="198.83" fill="#20242a" stroke="none" stroke-width="0.12"/>
<rect x="229.79" y="46.92" width="66.73" height="3.37" fill="#20242a" stroke="none" stroke-width="0.12"/>
<rect x="229.79" y="145.49" width="66.73" height="1.68" fill="#3d4247" stroke="none" stroke-width="0.12"/>
<rect x="233.16" y="51.14" width="59.99" height="1.68" fill="#3d4247" stroke="none" stroke-width="0.12"/>
<rect x="266.86" y="50.29" width="1.68" height="26.96" fill="#3d4247" stroke="none" stroke-width="0.12"/>
<rect x="234.85" y="145.16" width="15.16" height="2.36" fill="#ffffff" stroke="none" stroke-width="0.12"/>
<line x1="234.85" y1="146.34" x2="234.85" y2="131.17" stroke="#15181b" stroke-width="0.18"/>
<path d="M 250.01 146.34 A 15.16 15.16 0 0 1 234.85 131.17" fill="none" stroke="#15181b" stroke-width="0.13" stroke-dasharray="0.9 0.6"/>
<rect x="243.27" y="50.80" width="15.16" height="2.36" fill="#ffffff" stroke="none" stroke-width="0.12"/>
<line x1="243.27" y1="52.82" x2="243.27" y2="37.66" stroke="#15181b" stroke-width="0.18"/>
<path d="M 258.44 52.82 A 15.16 15.16 0 0 1 243.27 37.66" fill="none" stroke="#15181b" stroke-width="0.13" stroke-dasharray="0.9 0.6"/>
<rect x="271.92" y="50.80" width="15.16" height="2.36" fill="#ffffff" stroke="none" stroke-width="0.12"/>
<line x1="287.08" y1="52.82" x2="287.08" y2="37.66" stroke="#15181b" stroke-width="0.18"/>
<path d="M 271.92 52.82 A 15.16 15.16 0 0 0 287.08 37.66" fill="none" stroke="#15181b" stroke-width="0.13" stroke-dasharray="0.9 0.6"/>
<line x1="268.55" y1="51.47" x2="293.15" y2="51.47" stroke="#2f7a2f" stroke-width="0.3"/>
<rect x="257.60" y="52.82" width="1.68" height="93.52" fill="#e8590c" stroke="none" stroke-width="0.12"/>
<rect x="233.16" y="52.82" width="24.43" height="93.52" fill="#fdf7ef" stroke="none" stroke-width="0.12"/>
<rect x="257.09" y="107.58" width="2.70" height="25.27" fill="#ffffff" stroke="none" stroke-width="0.12"/>
<rect x="256.92" y="131.17" width="26.62" height="1.68" fill="#ffffff" stroke="none" stroke-width="0.12"/>
<line x1="551.96" y1="420.65" x2="551.96" y2="419.22" stroke="#e8590c" stroke-width="0.22"/>
<line x1="563.08" y1="419.39" x2="563.08" y2="417.96" stroke="#e8590c" stroke-width="0.22"/>
<text x="282.87" y="120.22" font-family="Segoe UI,Arial,Helvetica" font-size="1.8" fill="#e8590c" text-anchor="start" font-weight="normal">CỬA TRƯỢT 1500</text>
<rect x="234.51" y="99.16" width="10.95" height="35.38" fill="#ffe9c9" stroke="#c98f2e" stroke-width="0.14"/>
<circle cx="251.03" cy="122.75" r="4.04" fill="#cdd5dc" stroke="#8a939c" stroke-width="0.1"/>
<circle cx="251.03" cy="110.95" r="4.04" fill="#cdd5dc" stroke="#8a939c" stroke-width="0.1"/>
<rect x="233.50" y="121.90" width="6.74" height="23.59" fill="#e9e3d6" stroke="#a89a80" stroke-width="0.14"/>
<line x1="233.50" y1="133.70" x2="240.24" y2="133.70" stroke="#a89a80" stroke-width="0.08"/>
<text x="249.17" y="137.07" font-family="Segoe UI,Arial,Helvetica" font-size="1.9" fill="#15181b" text-anchor="middle" font-weight="bold">BÀN LÀM VIỆC</text>
<text x="249.17" y="142.12" font-family="Segoe UI,Arial,Helvetica" font-size="1.9" fill="#5a6167" text-anchor="middle" font-weight="bold">5.8 m²</text>
<rect x="259.45" y="84.84" width="33.70" height="26.96" fill="#cfe0f0" stroke="#7d95ab" stroke-width="0.1"/>
<rect x="291.30" y="84.84" width="1.85" height="26.96" fill="#a9c4dc" stroke="#7d95ab" stroke-width="0.1"/>
<rect x="284.05" y="99.83" width="7.25" height="8.93" fill="#ffffff" stroke="#9db3c7" stroke-width="0.1"/>
<rect x="284.05" y="87.87" width="7.25" height="8.93" fill="#ffffff" stroke="#9db3c7" stroke-width="0.1"/>
<rect x="263.49" y="135.38" width="29.66" height="10.11" fill="#e9e3d6" stroke="#a89a80" stroke-width="0.14"/>
<line x1="278.32" y1="145.49" x2="278.32" y2="135.38" stroke="#a89a80" stroke-width="0.08"/>
<text x="276.97" y="122.75" font-family="Segoe UI,Arial,Helvetica" font-size="1.9" fill="#15181b" text-anchor="middle" font-weight="bold">P. NGỦ 8.0 m²</text>
<text x="217.00" y="22.00" font-family="Segoe UI,Arial,Helvetica" font-size="3.2" fill="#e8590c" text-anchor="start" font-weight="bold">OPTION C</text>
<text x="234.00" y="22.00" font-family="Segoe UI,Arial,Helvetica" font-size="2.6" fill="#15181b" text-anchor="start" font-weight="bold">Long desk wall — side split</text>
<text x="217.00" y="190.00" font-family="Segoe UI,Arial,Helvetica" font-size="2.2" fill="#15181b" text-anchor="start" font-weight="normal">BÀN LÀM VIỆC 5.8 m² · P.NGỦ 8.0 m²</text>
<text x="217.00" y="194.10" font-family="Segoe UI,Arial,Helvetica" font-size="2.2" fill="#5a6167" text-anchor="start" font-weight="normal">One 2.1 m desk wall front-to-rear for</text>
<text x="217.00" y="198.20" font-family="Segoe UI,Arial,Helvetica" font-size="2.2" fill="#5a6167" text-anchor="start" font-weight="normal">two people; study gets the WC, the</text>
<text x="217.00" y="202.30" font-family="Segoe UI,Arial,Helvetica" font-size="2.2" fill="#5a6167" text-anchor="start" font-weight="normal">bedroom keeps the lô gia.</text>
<text x="217.00" y="206.40" font-family="Segoe UI,Arial,Helvetica" font-size="2.2" fill="#5a6167" text-anchor="start" font-weight="normal"></text>
<text x="217.00" y="210.50" font-family="Segoe UI,Arial,Helvetica" font-size="2.2" fill="#5a6167" text-anchor="start" font-weight="normal"></text>
<text x="217.00" y="214.60" font-family="Segoe UI,Arial,Helvetica" font-size="2.2" fill="#8a4b2a" text-anchor="start" font-weight="normal">− Bedroom only 2010 clear: the bed</text>
<text x="217.00" y="218.70" font-family="Segoe UI,Arial,Helvetica" font-size="2.2" fill="#8a4b2a" text-anchor="start" font-weight="normal">   must sit against the partition.</text>
<rect x="214.00" y="10.50" width="98.00" height="182.00" fill="none" stroke="#d3d8dc" stroke-width="0.25"/>
<rect x="331.79" y="146.34" width="66.73" height="26.96" fill="#fbfbfc" stroke="none" stroke-width="0.12"/>
<rect x="331.79" y="50.29" width="66.73" height="96.04" fill="#faf7f1" stroke="none" stroke-width="0.12"/>
<rect x="370.55" y="50.29" width="24.60" height="26.96" fill="#eaf3ea" stroke="#9ab89a" stroke-width="0.1"/>
<rect x="336.18" y="51.81" width="32.69" height="23.93" fill="#eef1f3" stroke="#9aa3ab" stroke-width="0.1"/>
<rect x="340.39" y="61.92" width="7.08" height="10.45" fill="#ffffff" stroke="#9aa3ab" stroke-width="0.1"/>
<circle cx="343.93" cy="70.68" r="3.20" fill="#ffffff" stroke="#9aa3ab" stroke-width="0.08"/>
<rect x="351.17" y="63.44" width="13.48" height="8.09" fill="#ffffff" stroke="#9aa3ab" stroke-width="0.1"/>
<rect x="331.79" y="50.29" width="3.37" height="198.83" fill="#20242a" stroke="none" stroke-width="0.12"/>
<rect x="395.15" y="50.29" width="3.37" height="198.83" fill="#20242a" stroke="none" stroke-width="0.12"/>
<rect x="331.79" y="46.92" width="66.73" height="3.37" fill="#20242a" stroke="none" stroke-width="0.12"/>
<rect x="331.79" y="145.49" width="66.73" height="1.68" fill="#3d4247" stroke="none" stroke-width="0.12"/>
<rect x="335.16" y="51.14" width="59.99" height="1.68" fill="#3d4247" stroke="none" stroke-width="0.12"/>
<rect x="368.86" y="50.29" width="1.68" height="26.96" fill="#3d4247" stroke="none" stroke-width="0.12"/>
<rect x="336.85" y="145.16" width="15.16" height="2.36" fill="#ffffff" stroke="none" stroke-width="0.12"/>
<line x1="336.85" y1="146.34" x2="336.85" y2="131.17" stroke="#15181b" stroke-width="0.18"/>
<path d="M 352.01 146.34 A 15.16 15.16 0 0 1 336.85 131.17" fill="none" stroke="#15181b" stroke-width="0.13" stroke-dasharray="0.9 0.6"/>
<rect x="345.27" y="50.80" width="15.16" height="2.36" fill="#ffffff" stroke="none" stroke-width="0.12"/>
<line x1="345.27" y1="52.82" x2="345.27" y2="37.66" stroke="#15181b" stroke-width="0.18"/>
<path d="M 360.44 52.82 A 15.16 15.16 0 0 1 345.27 37.66" fill="none" stroke="#15181b" stroke-width="0.13" stroke-dasharray="0.9 0.6"/>
<rect x="373.92" y="50.80" width="15.16" height="2.36" fill="#ffffff" stroke="none" stroke-width="0.12"/>
<line x1="389.08" y1="52.82" x2="389.08" y2="37.66" stroke="#15181b" stroke-width="0.18"/>
<path d="M 373.92 52.82 A 15.16 15.16 0 0 0 389.08 37.66" fill="none" stroke="#15181b" stroke-width="0.13" stroke-dasharray="0.9 0.6"/>
<line x1="370.55" y1="51.47" x2="395.15" y2="51.47" stroke="#2f7a2f" stroke-width="0.3"/>
<rect x="372.23" y="145.16" width="15.16" height="2.36" fill="#ffffff" stroke="none" stroke-width="0.12"/>
<line x1="372.23" y1="146.34" x2="372.23" y2="131.17" stroke="#15181b" stroke-width="0.18"/>
<path d="M 387.40 146.34 A 15.16 15.16 0 0 1 372.23 131.17" fill="none" stroke="#15181b" stroke-width="0.13" stroke-dasharray="0.9 0.6"/>
<text x="379.82" y="158.13" font-family="Segoe UI,Arial,Helvetica" font-size="1.8" fill="#e8590c" text-anchor="middle" font-weight="normal">CỬA MỚI</text>
<rect x="335.16" y="109.27" width="35.38" height="37.07" fill="#f0e7db" stroke="#e8590c" stroke-width="0.3"/>
<rect x="339.38" y="109.27" width="26.96" height="33.70" fill="#cfe0f0" stroke="#7d95ab" stroke-width="0.1"/>
<rect x="339.38" y="109.27" width="1.85" height="33.70" fill="#a9c4dc" stroke="#7d95ab" stroke-width="0.1"/>
<rect x="342.24" y="127.63" width="7.25" height="12.30" fill="#ffffff" stroke="#9db3c7" stroke-width="0.1"/>
<rect x="342.24" y="112.30" width="7.25" height="12.30" fill="#ffffff" stroke="#9db3c7" stroke-width="0.1"/>
<text x="352.86" y="137.91" font-family="Segoe UI,Arial,Helvetica" font-size="2.0" fill="#8a5a22" text-anchor="middle" font-weight="bold">SÀN NÂNG +1400</text>
<text x="352.86" y="143.81" font-family="Segoe UI,Arial,Helvetica" font-size="1.7" fill="#8a5a22" text-anchor="middle" font-weight="normal">kho/bàn dưới sàn</text>
<rect x="360.44" y="103.71" width="5.73" height="5.56" fill="#dfd3c2" stroke="#b08c5a" stroke-width="0.12"/>
<rect x="366.17" y="103.71" width="5.73" height="5.56" fill="#dfd3c2" stroke="#b08c5a" stroke-width="0.12"/>
<rect x="371.90" y="103.71" width="5.73" height="5.56" fill="#dfd3c2" stroke="#b08c5a" stroke-width="0.12"/>
<text x="369.71" y="100.84" font-family="Segoe UI,Arial,Helvetica" font-size="1.7" fill="#8a5a22" text-anchor="start" font-weight="normal">3 bậc</text>
<rect x="382.34" y="91.58" width="11.12" height="36.23" fill="#ffe9c9" stroke="#c98f2e" stroke-width="0.14"/>
<circle cx="376.78" cy="115.73" r="4.04" fill="#cdd5dc" stroke="#8a939c" stroke-width="0.1"/>
<circle cx="376.78" cy="103.65" r="4.04" fill="#cdd5dc" stroke="#8a939c" stroke-width="0.1"/>
<text x="370.55" y="122.75" font-family="Segoe UI,Arial,Helvetica" font-size="1.8" fill="#5a6167" text-anchor="middle" font-weight="normal">BÀN LÀM VIỆC 650 × 2150</text>
<text x="367.18" y="83.99" font-family="Segoe UI,Arial,Helvetica" font-size="2.1" fill="#15181b" text-anchor="middle" font-weight="bold">KHU LÀM VIỆC MỞ — 14.2 m²</text>
<line x1="335.16" y1="106.74" x2="367.18" y2="106.74" stroke="#7a4bd0" stroke-width="0.25" stroke-dasharray="3 1.5"/>
<text x="349.49" y="94.95" font-family="Segoe UI,Arial,Helvetica" font-size="1.8" fill="#7a4bd0" text-anchor="middle" font-weight="normal">RÈM / VÁCH DI ĐỘNG</text>
<text x="319.00" y="22.00" font-family="Segoe UI,Arial,Helvetica" font-size="3.2" fill="#e8590c" text-anchor="start" font-weight="bold">OPTION D</text>
<text x="336.00" y="22.00" font-family="Segoe UI,Arial,Helvetica" font-size="2.6" fill="#15181b" text-anchor="start" font-weight="bold">Platform bed, open studio</text>
<text x="319.00" y="190.00" font-family="Segoe UI,Arial,Helvetica" font-size="2.2" fill="#15181b" text-anchor="start" font-weight="normal">KHU MỞ 14.2 m² — no floor lost</text>
<text x="319.00" y="194.10" font-family="Segoe UI,Arial,Helvetica" font-size="2.2" fill="#5a6167" text-anchor="start" font-weight="normal">Bed raised +1400 on a platform with</text>
<text x="319.00" y="198.20" font-family="Segoe UI,Arial,Helvetica" font-size="2.2" fill="#5a6167" text-anchor="start" font-weight="normal">storage under it; nothing is walled</text>
<text x="319.00" y="202.30" font-family="Segoe UI,Arial,Helvetica" font-size="2.2" fill="#5a6167" text-anchor="start" font-weight="normal">off, just a track curtain.</text>
<text x="319.00" y="206.40" font-family="Segoe UI,Arial,Helvetica" font-size="2.2" fill="#5a6167" text-anchor="start" font-weight="normal">Cheapest build, most daylight, the</text>
<text x="319.00" y="210.50" font-family="Segoe UI,Arial,Helvetica" font-size="2.2" fill="#5a6167" text-anchor="start" font-weight="normal">longest desk wall.</text>
<text x="319.00" y="214.60" font-family="Segoe UI,Arial,Helvetica" font-size="2.2" fill="#8a4b2a" text-anchor="start" font-weight="normal">− Platform cost; 1400 headroom under</text>
<text x="319.00" y="218.70" font-family="Segoe UI,Arial,Helvetica" font-size="2.2" fill="#8a4b2a" text-anchor="start" font-weight="normal">   the bed; reads as a single room.</text>
<rect x="316.00" y="10.50" width="98.00" height="182.00" fill="none" stroke="#d3d8dc" stroke-width="0.25"/>
<rect x="10.00" y="264.00" width="400.00" height="26.00" fill="#fbfcfd" stroke="#e2e6ea" stroke-width="0.25"/>
<rect x="16.00" y="269.00" width="5.00" height="5.00" fill="#20242a" stroke="none" stroke-width="0.12"/>
<text x="23.00" y="273.00" font-family="Segoe UI,Arial,Helvetica" font-size="2.1" fill="#5a6167" text-anchor="start" font-weight="normal">tường / wall</text>
<rect x="56.00" y="269.00" width="5.00" height="5.00" fill="#e8590c" stroke="none" stroke-width="0.12"/>
<text x="63.00" y="273.00" font-family="Segoe UI,Arial,Helvetica" font-size="2.1" fill="#5a6167" text-anchor="start" font-weight="normal">vách mới / new partition</text>
<line x1="146.00" y1="271.50" x2="156.00" y2="271.50" stroke="#2f6fb0" stroke-width="0.25" stroke-dasharray="2.4 1.2"/>
<text x="159.00" y="273.00" font-family="Segoe UI,Arial,Helvetica" font-size="2.1" fill="#5a6167" text-anchor="start" font-weight="normal">kính / glazing</text>
<rect x="201.00" y="269.00" width="5.00" height="5.00" fill="#cfe0f0" stroke="#7d95ab" stroke-width="0.1"/>
<text x="208.00" y="273.00" font-family="Segoe UI,Arial,Helvetica" font-size="2.1" fill="#5a6167" text-anchor="start" font-weight="normal">giường 1600 × 2000</text>
<rect x="271.00" y="269.00" width="5.00" height="5.00" fill="#ffe9c9" stroke="#c98f2e" stroke-width="0.14"/>
<text x="278.00" y="273.00" font-family="Segoe UI,Arial,Helvetica" font-size="2.1" fill="#5a6167" text-anchor="start" font-weight="normal">bàn làm việc 650 sâu</text>
<rect x="351.00" y="269.00" width="5.00" height="5.00" fill="#e9e3d6" stroke="#a89a80" stroke-width="0.14"/>
<text x="358.00" y="273.00" font-family="Segoe UI,Arial,Helvetica" font-size="2.1" fill="#5a6167" text-anchor="start" font-weight="normal">tủ 600 sâu</text>
<text x="10.00" y="293.00" font-family="Segoe UI,Arial,Helvetica" font-size="2.1" fill="#7a8288" text-anchor="start" font-weight="normal">Scale ≈ 1:50 (1 m = 20 mm).  Walls: party 200, partitions 100, new partition shown 100 stud hoặc kính.  Furniture indicative.  Sources: contractor/MB 2-3-4-Model.pdf + designs/contractor-as-drawn.json.</text>
</svg>
